<svg width="24" height="24" viewBox="0 0 24 24" fill="none" xmlns="http://www.w3.org/2000/svg">
<path d="M7.38445 19H4.24975V9.65292H7.38445V19ZM5.81541 8.37789C4.81304 8.37789 4 7.60912 4 6.68097C4 6.23515 4.19127 5.80759 4.53172 5.49235C4.87218 5.1771 5.33394 5 5.81541 5C6.29689 5 6.75865 5.1771 7.0991 5.49235C7.43956 5.80759 7.63083 6.23515 7.63083 6.68097C7.63083 7.60912 6.81745 8.37789 5.81541 8.37789ZM15.9886 19V14.4499C15.9886 13.3655 15.9651 11.9749 14.3589 11.9749C12.7291 11.9749 12.4794 13.153 12.4794 14.3718V19H9.34803V9.65292H12.3545V10.9279H12.3984C12.8169 10.1936 13.8391 9.41853 15.3643 9.41853C18.5368 9.41853 19.12 11.353 19.12 13.8655V19H15.9886Z" fill="black"/>
</svg>
