<svg width="24" height="24" viewBox="0 0 24 24" fill="none" xmlns="http://www.w3.org/2000/svg">
<path d="M19.6625 8.73827C19.6743 8.90232 19.6743 9.06641 19.6743 9.23047C19.6743 14.2344 15.8445 20 8.84484 20C6.68836 20 4.68511 19.3789 3 18.3008C3.30639 18.3359 3.60096 18.3476 3.91914 18.3476C5.69849 18.3476 7.33648 17.75 8.6445 16.7305C6.97118 16.6953 5.56889 15.6055 5.08574 14.1055C5.32144 14.1406 5.5571 14.1641 5.80459 14.1641C6.14631 14.1641 6.48807 14.1171 6.80621 14.0351C5.0622 13.6836 3.75414 12.1601 3.75414 10.3203V10.2735C4.26083 10.5547 4.85008 10.7305 5.47458 10.7539C4.44937 10.0742 3.77772 8.91404 3.77772 7.60154C3.77772 6.89842 3.96623 6.25389 4.2962 5.69139C6.16985 7.98826 8.98623 9.48824 12.1443 9.65233C12.0854 9.37108 12.05 9.07814 12.05 8.78516C12.05 6.6992 13.7469 5 15.8562 5C16.9521 5 17.942 5.45703 18.6372 6.19531C19.4974 6.03126 20.3223 5.71484 21.0529 5.28125C20.7701 6.16018 20.1691 6.89846 19.3796 7.36718C20.1456 7.28519 20.888 7.0742 21.5714 6.78126C21.053 7.53124 20.4049 8.19917 19.6625 8.73827Z" fill="black"/>
</svg>
